<?xml version="1.0" encoding="utf-8"?><svg viewBox="0 0 512 512" xmlns="http://www.w3.org/2000/svg" xmlns:xlink="http://www.w3.org/1999/xlink"><style>:root>svg{display:none}:root>svg:target{display:block}</style><svg viewBox="0 0 16 10" id="arrow_down" xmlns="http://www.w3.org/2000/svg"><path d="M7.995 9.176a.348.348 0 01-.246-.101L.097 1.423A.348.348 0 01.59.93l7.406 7.405L15.401.93a.348.348 0 11.492.492L8.24 9.074a.348.348 0 01-.246.102z"/></svg><svg viewBox="0 0 28 28" id="cart" xmlns="http://www.w3.org/2000/svg"><path d="M9.434 23.898c-1.131 0-2.051.92-2.051 2.051 0 1.131.92 2.051 2.05 2.051 1.131 0 2.051-.92 2.051-2.05 0-1.132-.92-2.052-2.05-2.052zm0 3.282c-.679 0-1.23-.552-1.23-1.23 0-.68.551-1.231 1.23-1.231.678 0 1.23.552 1.23 1.23 0 .679-.552 1.23-1.23 1.23z"/><path d="M9.434 26.36a.41.41 0 100-.821.41.41 0 000 .82zM23.488 26.36a.41.41 0 100-.821.41.41 0 000 .82z"/><path d="M23.488 23.898c-1.13 0-2.05.92-2.05 2.051 0 1.131.92 2.051 2.05 2.051 1.131 0 2.051-.92 2.051-2.05 0-1.132-.92-2.052-2.05-2.052zm0 3.282c-.678 0-1.23-.552-1.23-1.23 0-.68.552-1.231 1.23-1.231.679 0 1.23.552 1.23 1.23 0 .679-.551 1.23-1.23 1.23zM6.773 19.849l2.985-1.693h6.703c.99 0 1.819-.705 2.01-1.64h4.271a2.87 2.87 0 002.782-2.16l2.463-9.633a.41.41 0 00-.397-.512H7.452l-.21-.818A4.508 4.508 0 002.873 0H1.23C.552 0 0 .552 0 1.23c0 .679.552 1.23 1.23 1.23h1.641c.938 0 1.756.635 1.987 1.542l3.15 12.317-2.448 1.389a2.877 2.877 0 00-1.458 2.499 2.874 2.874 0 002.87 2.871H25.13c.678 0 1.23-.552 1.23-1.23 0-.679-.552-1.23-1.23-1.23H6.973a.41.41 0 01-.2-.769zm15.203-7.982h-2.52l.153-3.008h2.828l-.461 3.008zm1.291-3.008h2.816l-.77 3.008h-2.507l.461-3.008zm-1.417 3.829l-.462 3.007H19.26l.153-3.008h2.437zm-3.216-.82h-2.525l-.154-3.009h2.833l-.154 3.008zm1.017-3.829l.154-3.008h3.22l-.462 3.008h-2.912zm-.821 0h-2.917l-.154-3.008h3.224L18.83 8.04zm-3.738 0h-1.624a.41.41 0 100 .82h1.666l.154 3.008h-2.52l-1.05-6.836h3.22l.154 3.008zm-3.155 3.828H9.41L8.64 8.86h2.836l.461 3.008zm.126.82l.462 3.008h-2.136l-.77-3.008h2.444zm1.292 3.008l-.462-3.008h2.437l.154 3.008h-2.13zm2.95 0l-.154-3.008h2.44l-.153 3.008h-2.133zm8.424-1.542a2.05 2.05 0 01-1.987 1.542h-.524l.462-3.008h2.424l-.375 1.466zm1.563-6.114h-2.899l.462-3.008h3.207l-.77 3.008zM10.888 5.031l.462 3.008H8.43l-.768-3.008h3.226zm-8.017-3.39h-1.64a.41.41 0 010-.82h1.64c.862 0 1.667.297 2.305.806l-.585.585a2.868 2.868 0 00-1.72-.571zm4.102 19.797h18.156a.41.41 0 010 .82H6.973c-1.131 0-2.051-.92-2.051-2.051 0-.737.4-1.421 1.042-1.785l2.722-1.544a.41.41 0 00.195-.458L5.653 3.8a2.86 2.86 0 00-.482-1.008l.585-.585c.32.4.56.87.692 1.39l3.225 12.61a.41.41 0 00.398.309h7.55c-.17.477-.625.82-1.16.82H9.65a.41.41 0 00-.203.053l-3.08 1.746a1.232 1.232 0 00.604 2.302z"/></svg><svg viewBox="0 0 18 18" id="info" xmlns="http://www.w3.org/2000/svg"><g clip-path="url(#cclip0)"><path d="M15.364 2.636a9.001 9.001 0 10-12.728 12.73 9.001 9.001 0 0012.728-12.73zm-5.19 10.277a1.174 1.174 0 11-2.348 0V8.217a1.174 1.174 0 112.348 0v4.696zM8.979 6.211c-.676 0-1.127-.48-1.113-1.07-.014-.62.437-1.085 1.127-1.085s1.127.465 1.141 1.085c0 .59-.45 1.07-1.155 1.07z"/></g><defs><clipPath id="cclip0"><path fill="#fff" d="M0 0h18v18H0z"/></clipPath></defs></svg><svg viewBox="0 0 8 8" id="multiply" xmlns="http://www.w3.org/2000/svg"><path d="M4 2.869L6.262.606l1.132 1.131L5.13 4l2.263 2.263-1.132 1.131L4 5.131 1.737 7.394.606 6.263 2.868 4 .606 1.737 1.736.606 4 2.869z"/></svg><svg viewBox="0 0 24 24" id="pin" xmlns="http://www.w3.org/2000/svg"><path d="M12 0C7.11 0 3.134 3.977 3.134 8.866c0 1.61.722 3.34.752 3.413a14.3 14.3 0 001.025 1.917l6.079 9.21c.248.378.617.594 1.01.594s.761-.216 1.01-.593l6.08-9.211a14.24 14.24 0 001.024-1.917c.03-.072.752-1.803.752-3.413C20.866 3.977 16.889 0 12 0zm7.152 11.874a13.097 13.097 0 01-.934 1.747l-6.079 9.211c-.12.182-.158.182-.278 0l-6.08-9.21a13.102 13.102 0 01-.933-1.748c-.009-.022-.67-1.615-.67-3.008 0-4.314 3.508-7.823 7.822-7.823 4.313 0 7.823 3.51 7.823 7.823 0 1.395-.664 2.993-.67 3.008z"/><path d="M12 4.173a4.699 4.699 0 00-4.694 4.693A4.699 4.699 0 0012 13.56a4.699 4.699 0 004.694-4.694A4.699 4.699 0 0012 4.173zm0 8.344a3.655 3.655 0 01-3.65-3.65A3.655 3.655 0 0112 5.215a3.655 3.655 0 013.65 3.65 3.655 3.655 0 01-3.65 3.65z"/></svg><svg viewBox="0 0 15 18" id="play" xmlns="http://www.w3.org/2000/svg"><path d="M15 9L0 17.66V.34L15 9z"/></svg><svg viewBox="0 0 512.002 512.002" id="rating" xmlns="http://www.w3.org/2000/svg"><path d="M511.267 197.258a14.995 14.995 0 00-12.107-10.209l-158.723-23.065-70.985-143.827a14.998 14.998 0 00-26.901 0l-70.988 143.827-158.72 23.065a14.998 14.998 0 00-8.312 25.585l114.848 111.954-27.108 158.083a14.999 14.999 0 0021.763 15.812l141.967-74.638 141.961 74.637a15 15 0 0021.766-15.813l-27.117-158.081 114.861-111.955a14.994 14.994 0 003.795-15.375z"/></svg><svg viewBox="0 0 16 10" id="select" xmlns="http://www.w3.org/2000/svg"><path d="M7.995 9.176a.348.348 0 01-.246-.101L.097 1.423A.348.348 0 01.59.93l7.406 7.405L15.401.93a.348.348 0 11.492.492L8.24 9.074a.348.348 0 01-.246.102z"/></svg><svg viewBox="0 0 30 30" id="step_1" xmlns="http://www.w3.org/2000/svg"><g clip-path="url(#iclip0)"><path d="M23.785 3.93h-2.714V2.718c0-.393-.429-.572-.821-.572h-2.107c-.5-1.428-1.75-2.143-3.179-2.143a3.25 3.25 0 00-3.178 2.143H9.715c-.393 0-.786.179-.786.572V3.93H6.215a3.036 3.036 0 00-3 2.892v20.463c0 1.571 1.429 2.714 3 2.714h17.57c1.571 0 3-1.143 3-2.714V6.823a3.036 3.036 0 00-3-2.892zm-13.428-.356h1.965A.786.786 0 0013 2.93a2.071 2.071 0 011.964-1.607 2.035 2.035 0 011.929 1.607.786.786 0 00.714.643h2.036V6.43h-9.286V3.574zm15 23.712c0 .786-.786 1.286-1.572 1.286H6.215c-.786 0-1.571-.5-1.571-1.286V6.823c.073-.817.75-1.449 1.571-1.464h2.714v1.822c.038.4.384.699.786.678H20.25a.786.786 0 00.82-.678V5.359h2.715c.82.015 1.498.647 1.571 1.464v20.463z"/><path d="M12.25 15.965a.714.714 0 00-1-.035l-2.285 2.178-.964-1a.714.714 0 00-1-.035.75.75 0 000 1.035l1.464 1.5c.126.142.31.22.5.214a.714.714 0 00.5-.214l2.785-2.643a.678.678 0 000-1zM22.5 17.501h-8.214a.714.714 0 100 1.428H22.5a.714.714 0 100-1.428zM12.25 10.252a.714.714 0 00-1-.036l-2.285 2.178-.964-1a.714.714 0 00-1-.035.75.75 0 000 1.035l1.464 1.5c.126.142.31.22.5.214a.714.714 0 00.5-.214l2.785-2.643a.679.679 0 000-1zM22.5 11.787h-8.214a.714.714 0 000 1.429H22.5a.714.714 0 000-1.429zM12.25 21.68a.714.714 0 00-1-.037l-2.285 2.179-.964-1a.714.714 0 00-1-.036.75.75 0 000 1.036l1.464 1.5c.126.142.31.22.5.214a.714.714 0 00.5-.214l2.785-2.643a.678.678 0 000-1zM22.5 23.215h-8.214a.714.714 0 000 1.428H22.5a.714.714 0 000-1.428z"/></g><defs><clipPath id="iclip0"><path fill="#fff" d="M0 0h30v30H0z"/></clipPath></defs></svg><svg viewBox="0 0 24 24" id="user" xmlns="http://www.w3.org/2000/svg"><path d="M12 0a5.613 5.613 0 00-5.616 5.616A5.613 5.613 0 0012 11.232a5.613 5.613 0 005.616-5.616A5.613 5.613 0 0012 0zM14.187 11.882H9.813a7.985 7.985 0 00-7.98 7.98v3.251a.87.87 0 00.886.887h18.562a.87.87 0 00.887-.887v-3.25a7.985 7.985 0 00-7.98-7.981z"/></svg></svg>