<?xml version="1.0" encoding="utf-8"?><svg viewBox="0 0 512 512" xmlns="http://www.w3.org/2000/svg" xmlns:xlink="http://www.w3.org/1999/xlink"><style>:root>svg{display:none}:root>svg:target{display:block}</style><svg viewBox="0 0 16 10" id="arrow_down" xmlns="http://www.w3.org/2000/svg"><path d="M7.995 9.176a.348.348 0 01-.246-.101L.097 1.423A.348.348 0 01.59.93l7.406 7.405L15.401.93a.348.348 0 11.492.492L8.24 9.074a.348.348 0 01-.246.102z"/></svg><svg viewBox="0 0 18 18" id="ask" xmlns="http://www.w3.org/2000/svg"><path d="M9 0C4.037 0 0 4.037 0 9s4.037 9 9 9 9-4.037 9-9-4.037-9-9-9zm0 14.25a.75.75 0 110-1.5.75.75 0 010 1.5zm1.187-4.769a.753.753 0 00-.437.682v.337a.75.75 0 11-1.5 0v-.337A2.26 2.26 0 019.559 8.12c.764-.352 1.316-1.286 1.316-1.744 0-1.033-.84-1.875-1.875-1.875a1.877 1.877 0 00-1.875 1.875.75.75 0 11-1.5 0A3.38 3.38 0 019 3a3.38 3.38 0 013.375 3.375c0 1.013-.879 2.503-2.188 3.106z"/></svg><svg viewBox="0 0 15 18" id="back" xmlns="http://www.w3.org/2000/svg"><path d="M0 9L15 .34v17.32L0 9z"/></svg><svg viewBox="0 0 28 28" id="cart" xmlns="http://www.w3.org/2000/svg"><path d="M9.434 23.898c-1.131 0-2.051.92-2.051 2.051 0 1.131.92 2.051 2.05 2.051 1.131 0 2.051-.92 2.051-2.05 0-1.132-.92-2.052-2.05-2.052zm0 3.282c-.679 0-1.23-.552-1.23-1.23 0-.68.551-1.231 1.23-1.231.678 0 1.23.552 1.23 1.23 0 .679-.552 1.23-1.23 1.23z"/><path d="M9.434 26.36a.41.41 0 100-.821.41.41 0 000 .82zM23.488 26.36a.41.41 0 100-.821.41.41 0 000 .82z"/><path d="M23.488 23.898c-1.13 0-2.05.92-2.05 2.051 0 1.131.92 2.051 2.05 2.051 1.131 0 2.051-.92 2.051-2.05 0-1.132-.92-2.052-2.05-2.052zm0 3.282c-.678 0-1.23-.552-1.23-1.23 0-.68.552-1.231 1.23-1.231.679 0 1.23.552 1.23 1.23 0 .679-.551 1.23-1.23 1.23zM6.773 19.849l2.985-1.693h6.703c.99 0 1.819-.705 2.01-1.64h4.271a2.87 2.87 0 002.782-2.16l2.463-9.633a.41.41 0 00-.397-.512H7.452l-.21-.818A4.508 4.508 0 002.873 0H1.23C.552 0 0 .552 0 1.23c0 .679.552 1.23 1.23 1.23h1.641c.938 0 1.756.635 1.987 1.542l3.15 12.317-2.448 1.389a2.877 2.877 0 00-1.458 2.499 2.874 2.874 0 002.87 2.871H25.13c.678 0 1.23-.552 1.23-1.23 0-.679-.552-1.23-1.23-1.23H6.973a.41.41 0 01-.2-.769zm15.203-7.982h-2.52l.153-3.008h2.828l-.461 3.008zm1.291-3.008h2.816l-.77 3.008h-2.507l.461-3.008zm-1.417 3.829l-.462 3.007H19.26l.153-3.008h2.437zm-3.216-.82h-2.525l-.154-3.009h2.833l-.154 3.008zm1.017-3.829l.154-3.008h3.22l-.462 3.008h-2.912zm-.821 0h-2.917l-.154-3.008h3.224L18.83 8.04zm-3.738 0h-1.624a.41.41 0 100 .82h1.666l.154 3.008h-2.52l-1.05-6.836h3.22l.154 3.008zm-3.155 3.828H9.41L8.64 8.86h2.836l.461 3.008zm.126.82l.462 3.008h-2.136l-.77-3.008h2.444zm1.292 3.008l-.462-3.008h2.437l.154 3.008h-2.13zm2.95 0l-.154-3.008h2.44l-.153 3.008h-2.133zm8.424-1.542a2.05 2.05 0 01-1.987 1.542h-.524l.462-3.008h2.424l-.375 1.466zm1.563-6.114h-2.899l.462-3.008h3.207l-.77 3.008zM10.888 5.031l.462 3.008H8.43l-.768-3.008h3.226zm-8.017-3.39h-1.64a.41.41 0 010-.82h1.64c.862 0 1.667.297 2.305.806l-.585.585a2.868 2.868 0 00-1.72-.571zm4.102 19.797h18.156a.41.41 0 010 .82H6.973c-1.131 0-2.051-.92-2.051-2.051 0-.737.4-1.421 1.042-1.785l2.722-1.544a.41.41 0 00.195-.458L5.653 3.8a2.86 2.86 0 00-.482-1.008l.585-.585c.32.4.56.87.692 1.39l3.225 12.61a.41.41 0 00.398.309h7.55c-.17.477-.625.82-1.16.82H9.65a.41.41 0 00-.203.053l-3.08 1.746a1.232 1.232 0 00.604 2.302z"/></svg><svg viewBox="0 0 14 11" id="check" xmlns="http://www.w3.org/2000/svg"><path d="M12.46.01a.84.84 0 00-.488.256C9.18 3.102 7.09 5.443 4.426 8.18l-3.033-2.6a.836.836 0 00-.616-.21.83.83 0 00-.579.3.853.853 0 00-.097.95c.053.1.125.188.211.259l3.626 3.11a.828.828 0 001.129-.053c2.992-3.04 5.13-5.476 8.088-8.48a.853.853 0 00.168-.98.843.843 0 00-.358-.376.828.828 0 00-.507-.092l.004.002z"/></svg><svg viewBox="0 0 512 512" id="circle" xmlns="http://www.w3.org/2000/svg"><path d="M256 0C115.39 0 0 115.39 0 256s115.39 256 256 256 256-115.39 256-256S396.61 0 256 0z"/></svg><svg viewBox="0 0 20 20" id="cross" xmlns="http://www.w3.org/2000/svg"><path d="M10 0C4.484 0 0 4.484 0 10s4.484 10 10 10 10-4.484 10-10S15.516 0 10 0zm0 18.99c-4.953 0-8.99-4.037-8.99-8.99S5.046 1.01 10 1.01s8.99 4.037 8.99 8.99-4.037 8.99-8.99 8.99z"/><path d="M10.704 9.953l2.934-2.934a.51.51 0 000-.704.51.51 0 00-.704 0L10 9.249 7.066 6.315a.51.51 0 00-.704 0 .51.51 0 000 .704l2.934 2.934-2.934 2.91a.51.51 0 000 .705c.093.094.234.14.352.14a.517.517 0 00.352-.14L10 10.634l2.934 2.934c.094.094.235.14.352.14a.517.517 0 00.353-.14.51.51 0 000-.704l-2.935-2.911z"/></svg><svg viewBox="0 0 30 30" id="delivery" xmlns="http://www.w3.org/2000/svg"><path d="M27.9 13.556l-.777-3.107a.47.47 0 00.372-.46v-.5a1.975 1.975 0 00-1.973-1.973h-3.539V6.482a.972.972 0 00-.97-.97H2.974a.972.972 0 00-.97.97V15a.47.47 0 00.939 0V6.482c0-.017.014-.031.03-.031h18.038c.018 0 .032.014.032.031V15a.47.47 0 10.94 0v-.532h5.542c.683 0 1.262.448 1.46 1.064h-1.46a.47.47 0 00-.47.47v1.002c0 .812.66 1.472 1.472 1.472h.532v2.067h-1.228a2.98 2.98 0 00-2.811-2.004c-1.3 0-2.408.839-2.812 2.004h-.226v-3.539a.47.47 0 10-.94 0v3.539h-9.745a2.98 2.98 0 00-2.812-2.005c-1.3 0-2.408.84-2.811 2.005h-2.7a.031.031 0 01-.031-.032v-1.033h2.035a.47.47 0 000-.94H.47a.47.47 0 000 .94h1.535v1.033c0 .536.436.971.971.971h2.537v.032a2.978 2.978 0 002.974 2.974 2.978 2.978 0 002.975-2.974v-.032h10.586l-.001.032a2.978 2.978 0 002.975 2.974 2.978 2.978 0 002.975-2.974l-.001-.032h1.535c.26 0 .47-.21.47-.47v-5.01a2.477 2.477 0 00-2.1-2.445zm-5.917-5.1h3.539c.57 0 1.033.463 1.033 1.033v.03h-4.572V8.456zm0 5.072V10.46h4.174l.767 3.07h-4.94zM8.486 23.55a2.038 2.038 0 01-2.035-2.035c0-1.123.913-2.036 2.035-2.036 1.123 0 2.036.913 2.036 2.036a2.038 2.038 0 01-2.036 2.035zm16.535 0a2.038 2.038 0 01-2.036-2.035c0-1.123.913-2.036 2.036-2.036 1.122 0 2.035.913 2.035 2.036a2.038 2.038 0 01-2.035 2.035zm4.04-6.012h-.533a.533.533 0 01-.532-.533v-.532h1.065v1.065z"/><path d="M8.486 20.543a.972.972 0 000 1.941.972.972 0 000-1.941zM25.022 20.543a.972.972 0 000 1.941.972.972 0 000-1.941zM19.51 18.539h-7.015a.47.47 0 000 .94h7.015a.47.47 0 000-.94zM7.484 16.534H1.472a.47.47 0 000 .94h6.012a.47.47 0 000-.94z"/></svg><svg viewBox="0 0 20 20" id="edit" xmlns="http://www.w3.org/2000/svg"><path d="M17.216 1.373a2.582 2.582 0 00-3.648 0l-.914.919-9.721 9.716-.021.021c-.005.005-.005.01-.01.01-.01.016-.026.031-.036.047 0 .005-.006.005-.006.01-.01.016-.015.026-.026.041-.005.006-.005.01-.01.016l-.015.041c0 .005-.005.005-.005.01L.647 18.692a.508.508 0 00.123.526.519.519 0 00.532.124l6.481-2.162c.005 0 .005 0 .01-.005a.183.183 0 00.047-.02.018.018 0 00.01-.006c.016-.01.036-.02.052-.031.015-.01.03-.026.046-.036.006-.005.01-.005.01-.01.006-.006.016-.01.021-.021L18.615 6.415a2.582 2.582 0 000-3.649l-1.399-1.393zM7.618 15.966l-3.591-3.591 8.989-8.99 3.591 3.592-8.989 8.99zM3.521 13.33l3.137 3.137-4.711 1.569 1.574-4.707zm14.366-7.638l-.547.553-3.592-3.592.553-.552a1.548 1.548 0 012.187 0l1.404 1.403c.6.607.597 1.584-.005 2.188z"/></svg><svg fill="none" viewBox="0 0 20 20" id="form_chb" xmlns="http://www.w3.org/2000/svg"><path d="M17.656 20H2.344A2.346 2.346 0 010 17.656V2.344A2.346 2.346 0 012.344 0h15.312A2.346 2.346 0 0120 2.344v15.312A2.346 2.346 0 0117.656 20zM2.344 1.562c-.431 0-.781.351-.781.782v15.312c0 .431.35.782.78.782h15.313c.431 0 .782-.351.782-.782V2.344c0-.431-.351-.781-.782-.781H2.344zm14.488 4.35l-1.164-1.043-7.225 8.07-4.194-3.987-1.076 1.133 5.36 5.095 8.299-9.268z" fill="#00B3D4"/></svg><svg fill="none" viewBox="0 0 20 20" id="form_radio" xmlns="http://www.w3.org/2000/svg"><circle cx="10" cy="10" r="9.5" stroke="#00B3D4"/><circle cx="10" cy="10" r="5" fill="#00B3D4"/></svg><svg viewBox="0 0 24 24" id="home" xmlns="http://www.w3.org/2000/svg"><g clip-path="url(#alclip0)"><path d="M19.779 9.927V21.11h-4.222v-4.836a.768.768 0 00-.768-.768H9.39a.768.768 0 00-.767.768v4.836H4.427V9.927H2.892v11.95c0 .423.343.767.767.767h5.732a.767.767 0 00.767-.768v-4.835h3.864v4.835c0 .424.343.768.767.768h5.757a.768.768 0 00.768-.768V9.927h-1.535z"/><path d="M23.757 10.62L12.627.208a.768.768 0 00-1.044-.005L.248 10.616a.767.767 0 101.039 1.13l10.81-9.932 10.611 9.928a.768.768 0 101.049-1.121z"/></g><defs><clipPath id="alclip0"><path d="M0 0h24v24H0z"/></clipPath></defs></svg><svg viewBox="0 0 18 18" id="info" xmlns="http://www.w3.org/2000/svg"><g clip-path="url(#amclip0)"><path d="M15.364 2.636a9.001 9.001 0 10-12.728 12.73 9.001 9.001 0 0012.728-12.73zm-5.19 10.277a1.174 1.174 0 11-2.348 0V8.217a1.174 1.174 0 112.348 0v4.696zM8.979 6.211c-.676 0-1.127-.48-1.113-1.07-.014-.62.437-1.085 1.127-1.085s1.127.465 1.141 1.085c0 .59-.45 1.07-1.155 1.07z"/></g><defs><clipPath id="amclip0"><path fill="#fff" d="M0 0h18v18H0z"/></clipPath></defs></svg><svg viewBox="0 0 8 8" id="multiply" xmlns="http://www.w3.org/2000/svg"><path d="M4 2.869L6.262.606l1.132 1.131L5.13 4l2.263 2.263-1.132 1.131L4 5.131 1.737 7.394.606 6.263 2.868 4 .606 1.737 1.736.606 4 2.869z"/></svg><svg viewBox="0 0 15 18" id="next" xmlns="http://www.w3.org/2000/svg"><path d="M15 9L0 17.66V.34L15 9z"/></svg><svg viewBox="0 0 24 24" id="pin" xmlns="http://www.w3.org/2000/svg"><path d="M12 0C7.11 0 3.134 3.977 3.134 8.866c0 1.61.722 3.34.752 3.413a14.3 14.3 0 001.025 1.917l6.079 9.21c.248.378.617.594 1.01.594s.761-.216 1.01-.593l6.08-9.211a14.24 14.24 0 001.024-1.917c.03-.072.752-1.803.752-3.413C20.866 3.977 16.889 0 12 0zm7.152 11.874a13.097 13.097 0 01-.934 1.747l-6.079 9.211c-.12.182-.158.182-.278 0l-6.08-9.21a13.102 13.102 0 01-.933-1.748c-.009-.022-.67-1.615-.67-3.008 0-4.314 3.508-7.823 7.822-7.823 4.313 0 7.823 3.51 7.823 7.823 0 1.395-.664 2.993-.67 3.008z"/><path d="M12 4.173a4.699 4.699 0 00-4.694 4.693A4.699 4.699 0 0012 13.56a4.699 4.699 0 004.694-4.694A4.699 4.699 0 0012 4.173zm0 8.344a3.655 3.655 0 01-3.65-3.65A3.655 3.655 0 0112 5.215a3.655 3.655 0 013.65 3.65 3.655 3.655 0 01-3.65 3.65z"/></svg><svg fill="none" viewBox="0 0 16 16" id="plus" xmlns="http://www.w3.org/2000/svg"><path d="M9.14 6.903H16V9.13H9.14V16H6.826V9.129H0V6.903h6.826V0H9.14V6.903z" fill="#00B3D4"/></svg><svg viewBox="0 0 510 510" id="radio" xmlns="http://www.w3.org/2000/svg"><path d="M255 127.5c-71.4 0-127.5 56.1-127.5 127.5S183.6 382.5 255 382.5 382.5 326.4 382.5 255 326.4 127.5 255 127.5zM255 0C114.75 0 0 114.75 0 255s114.75 255 255 255 255-114.75 255-255S395.25 0 255 0zm0 459c-112.2 0-204-91.8-204-204S142.8 51 255 51s204 91.8 204 204-91.8 204-204 204z"/></svg><svg viewBox="0 0 512.002 512.002" id="rating" xmlns="http://www.w3.org/2000/svg"><path d="M511.267 197.258a14.995 14.995 0 00-12.107-10.209l-158.723-23.065-70.985-143.827a14.998 14.998 0 00-26.901 0l-70.988 143.827-158.72 23.065a14.998 14.998 0 00-8.312 25.585l114.848 111.954-27.108 158.083a14.999 14.999 0 0021.763 15.812l141.967-74.638 141.961 74.637a15 15 0 0021.766-15.813l-27.117-158.081 114.861-111.955a14.994 14.994 0 003.795-15.375z"/></svg><svg viewBox="0 0 16 10" id="select" xmlns="http://www.w3.org/2000/svg"><path d="M7.995 9.176a.348.348 0 01-.246-.101L.097 1.423A.348.348 0 01.59.93l7.406 7.405L15.401.93a.348.348 0 11.492.492L8.24 9.074a.348.348 0 01-.246.102z"/></svg><svg viewBox="0 0 12 12" id="star" xmlns="http://www.w3.org/2000/svg"><path d="M11.986 4.561a.34.34 0 00-.097-.151.304.304 0 00-.157-.075l-3.765-.574L6.284.185A.334.334 0 006.167.05a.303.303 0 00-.332 0 .334.334 0 00-.117.135L4.034 3.76.27 4.335a.303.303 0 00-.157.074.35.35 0 00-.018.492L2.82 7.686l-.643 3.932a.35.35 0 00.02.179.31.31 0 00.268.203.304.304 0 00.17-.037L6 10.106l3.366 1.856a.303.303 0 00.331-.025.324.324 0 00.106-.141.35.35 0 00.02-.18L9.18 7.686 11.903 4.9a.325.325 0 00.088-.157.343.343 0 00-.007-.183h.002zM8.623 7.335a.35.35 0 00-.09.293l.562 3.442-2.947-1.625a.304.304 0 00-.298 0l-2.944 1.621.564-3.442a.35.35 0 00-.09-.293L.991 4.894 4.29 4.39a.303.303 0 00.14-.06.333.333 0 00.097-.122l1.475-3.125 1.473 3.132c.024.048.057.09.099.122.04.031.089.052.139.06l3.295.501-2.384 2.438z"/></svg><svg viewBox="0 0 30 30" id="step_1" xmlns="http://www.w3.org/2000/svg"><g clip-path="url(#avclip0)"><path d="M23.785 3.93h-2.714V2.718c0-.393-.429-.572-.821-.572h-2.107c-.5-1.428-1.75-2.143-3.179-2.143a3.25 3.25 0 00-3.178 2.143H9.715c-.393 0-.786.179-.786.572V3.93H6.215a3.036 3.036 0 00-3 2.892v20.463c0 1.571 1.429 2.714 3 2.714h17.57c1.571 0 3-1.143 3-2.714V6.823a3.036 3.036 0 00-3-2.892zm-13.428-.356h1.965A.786.786 0 0013 2.93a2.071 2.071 0 011.964-1.607 2.035 2.035 0 011.929 1.607.786.786 0 00.714.643h2.036V6.43h-9.286V3.574zm15 23.712c0 .786-.786 1.286-1.572 1.286H6.215c-.786 0-1.571-.5-1.571-1.286V6.823c.073-.817.75-1.449 1.571-1.464h2.714v1.822c.038.4.384.699.786.678H20.25a.786.786 0 00.82-.678V5.359h2.715c.82.015 1.498.647 1.571 1.464v20.463z"/><path d="M12.25 15.965a.714.714 0 00-1-.035l-2.285 2.178-.964-1a.714.714 0 00-1-.035.75.75 0 000 1.035l1.464 1.5c.126.142.31.22.5.214a.714.714 0 00.5-.214l2.785-2.643a.678.678 0 000-1zM22.5 17.501h-8.214a.714.714 0 100 1.428H22.5a.714.714 0 100-1.428zM12.25 10.252a.714.714 0 00-1-.036l-2.285 2.178-.964-1a.714.714 0 00-1-.035.75.75 0 000 1.035l1.464 1.5c.126.142.31.22.5.214a.714.714 0 00.5-.214l2.785-2.643a.679.679 0 000-1zM22.5 11.787h-8.214a.714.714 0 000 1.429H22.5a.714.714 0 000-1.429zM12.25 21.68a.714.714 0 00-1-.037l-2.285 2.179-.964-1a.714.714 0 00-1-.036.75.75 0 000 1.036l1.464 1.5c.126.142.31.22.5.214a.714.714 0 00.5-.214l2.785-2.643a.678.678 0 000-1zM22.5 23.215h-8.214a.714.714 0 000 1.428H22.5a.714.714 0 000-1.428z"/></g><defs><clipPath id="avclip0"><path fill="#fff" d="M0 0h30v30H0z"/></clipPath></defs></svg><svg viewBox="0 0 30 30" id="step_2" xmlns="http://www.w3.org/2000/svg"><path d="M22.969 29.063H7.03A3.285 3.285 0 013.75 25.78V4.22A3.285 3.285 0 017.031.937H22.97A3.285 3.285 0 0126.25 4.22V25.78a3.285 3.285 0 01-3.281 3.282zM7.03 1.875a2.347 2.347 0 00-2.343 2.344V25.78a2.347 2.347 0 002.343 2.344H22.97a2.346 2.346 0 002.343-2.344V4.22a2.346 2.346 0 00-2.343-2.344H7.03z"/><path d="M16.406 27.188h-2.812a1.406 1.406 0 01-1.406-1.407v-1.875a1.406 1.406 0 011.406-1.406h2.812a1.406 1.406 0 011.407 1.406v1.875a1.406 1.406 0 01-1.407 1.407zm-2.812-3.75a.469.469 0 00-.469.468v1.875a.469.469 0 00.469.469h2.812a.469.469 0 00.469-.469v-1.875a.469.469 0 00-.469-.468h-2.812zM9.844 27.188H7.03a1.406 1.406 0 01-1.406-1.407v-1.875A1.406 1.406 0 017.031 22.5h2.813a1.406 1.406 0 011.406 1.406v1.875a1.406 1.406 0 01-1.406 1.407zm-2.813-3.75a.469.469 0 00-.468.468v1.875a.469.469 0 00.468.469h2.813a.469.469 0 00.469-.469v-1.875a.469.469 0 00-.47-.468H7.032zM22.969 27.188h-2.813a1.406 1.406 0 01-1.406-1.407v-7.5a1.406 1.406 0 011.406-1.406h2.813a1.406 1.406 0 011.406 1.406v7.5a1.406 1.406 0 01-1.406 1.407zm-2.813-9.375a.469.469 0 00-.468.468v7.5a.469.469 0 00.468.469h2.813a.469.469 0 00.468-.469v-7.5a.469.469 0 00-.468-.468h-2.813zM16.406 21.563h-2.812a1.406 1.406 0 01-1.406-1.407v-1.875a1.406 1.406 0 011.406-1.406h2.812a1.406 1.406 0 011.407 1.406v1.875a1.406 1.406 0 01-1.407 1.407zm-2.812-3.75a.469.469 0 00-.469.468v1.875a.469.469 0 00.469.469h2.812a.469.469 0 00.469-.469v-1.875a.469.469 0 00-.469-.468h-2.812zM9.844 21.563H7.03a1.406 1.406 0 01-1.406-1.407v-1.875a1.406 1.406 0 011.406-1.406h2.813a1.406 1.406 0 011.406 1.406v1.875a1.406 1.406 0 01-1.406 1.407zm-2.813-3.75a.469.469 0 00-.468.468v1.875a.469.469 0 00.468.469h2.813a.469.469 0 00.469-.469v-1.875a.469.469 0 00-.47-.468H7.032zM16.406 15.938h-2.812a1.406 1.406 0 01-1.406-1.407v-1.875a1.406 1.406 0 011.406-1.406h2.812a1.406 1.406 0 011.407 1.406v1.875a1.406 1.406 0 01-1.407 1.406zm-2.812-3.75a.469.469 0 00-.469.468v1.875a.469.469 0 00.469.469h2.812a.469.469 0 00.469-.469v-1.875a.469.469 0 00-.469-.469h-2.812zM9.844 15.938H7.03a1.406 1.406 0 01-1.406-1.407v-1.875a1.406 1.406 0 011.406-1.406h2.813a1.406 1.406 0 011.406 1.406v1.875a1.406 1.406 0 01-1.406 1.406zm-2.813-3.75a.469.469 0 00-.468.468v1.875A.469.469 0 007.03 15h2.813a.469.469 0 00.469-.469v-1.875a.469.469 0 00-.47-.469H7.032zM22.969 15.938h-2.813a1.406 1.406 0 01-1.406-1.407v-1.875a1.406 1.406 0 011.406-1.406h2.813a1.406 1.406 0 011.406 1.406v1.875a1.406 1.406 0 01-1.406 1.406zm-2.813-3.75a.469.469 0 00-.468.468v1.875a.469.469 0 00.468.469h2.813a.469.469 0 00.468-.469v-1.875a.469.469 0 00-.468-.469h-2.813zM22.969 9.375H7.03a1.406 1.406 0 01-1.406-1.406v-3.75a1.406 1.406 0 011.406-1.407H22.97a1.406 1.406 0 011.406 1.407v3.75a1.406 1.406 0 01-1.406 1.406zM7.03 3.75a.469.469 0 00-.468.469v3.75a.469.469 0 00.468.468H22.97a.469.469 0 00.468-.468v-3.75a.469.469 0 00-.468-.469H7.03z"/><path d="M21.563 7.969a1.406 1.406 0 01-1.407-1.407v-.937a1.406 1.406 0 012.813 0v.938a1.406 1.406 0 01-1.407 1.406zm0-2.813a.47.47 0 00-.47.469v.938a.469.469 0 10.938 0v-.938a.469.469 0 00-.468-.469z"/></svg><svg viewBox="0 0 30 30" id="step_3" xmlns="http://www.w3.org/2000/svg"><path d="M25.995 5.5a.5.5 0 00-.142-.354l-5-5A.494.494 0 0020.5.005V0h-15A1.5 1.5 0 004 1.5v27A1.5 1.5 0 005.5 30h19a1.5 1.5 0 001.5-1.5v-23h-.005zM21 1.707L24.293 5H21.5a.5.5 0 01-.5-.5V1.707zM25 28.5a.5.5 0 01-.5.5h-19a.5.5 0 01-.5-.5v-27a.5.5 0 01.5-.5H20v3.5A1.5 1.5 0 0021.5 6H25v22.5z"/><path d="M9 13.5a1.5 1.5 0 100 3 1.5 1.5 0 000-3zm0 2a.5.5 0 110-1 .5.5 0 010 1zM22.5 14.5h-10v1h10v-1zM9 8.5a1.5 1.5 0 100 3 1.5 1.5 0 000-3zm0 2a.5.5 0 110-1 .5.5 0 010 1zM22.5 9.5h-10v1h10v-1zM9 18.5a1.5 1.5 0 100 3 1.5 1.5 0 000-3zm0 2a.5.5 0 110-1 .5.5 0 010 1zM22.5 19.5h-10v1h10v-1zM9 23.5a1.5 1.5 0 100 3 1.5 1.5 0 000-3zm0 2a.5.5 0 110-1 .5.5 0 010 1zM22.5 24.5h-10v1h10v-1z"/></svg><svg viewBox="0 0 30 30" id="step_4" xmlns="http://www.w3.org/2000/svg"><g clip-path="url(#ayclip0)"><path d="M24.092 15.271l.513-2.149.004-.017a2.828 2.828 0 00-2.774-3.376H20.32V7.314a2.977 2.977 0 00-2.973-2.974h-4.104c-.46 0-.904-.166-1.25-.467l-1.308-1.138a2.826 2.826 0 00-1.857-.695H2.973A2.976 2.976 0 000 5.012v15.425a3.414 3.414 0 003.237 3.409v.005H17.6a6.456 6.456 0 002.166 2.916 6.396 6.396 0 104.327-11.496zm-2.257-4.619a1.905 1.905 0 011.87 2.265l-.562 2.353a6.395 6.395 0 00-5.806 7.657H5.747c.487-.456.83-1.044.987-1.693l2.576-9.097.005-.02c.202-.86.97-1.467 1.854-1.465h10.666zM16.823 8.8c.59.001 1.115.374 1.311.93H11.17a2.819 2.819 0 00-2.75 2.165l-2.576 9.098-.005.02a2.49 2.49 0 01-.482.983V10.704A1.907 1.907 0 017.26 8.799h9.563zM7.26 7.876a2.831 2.831 0 00-2.828 2.828v12.005a2.493 2.493 0 01-1.443.182V8.81a1.906 1.906 0 011.905-1.904h9.524c.612 0 1.156.39 1.354.969H7.26zM.923 20.436V5.013a2.052 2.052 0 012.05-2.05h5.856c.46 0 .904.167 1.25.469l1.308 1.138a2.828 2.828 0 001.857.694h4.104a2.052 2.052 0 012.05 2.05V9.73h-.306a2.318 2.318 0 00-2.269-1.853h-.097a2.358 2.358 0 00-2.309-1.892H4.894A2.83 2.83 0 002.066 8.81v13.72a2.498 2.498 0 01-1.143-2.094zm22.681 6.687a5.426 5.426 0 01-3.284-1.095 5.473 5.473 0 013.198-9.851h.013l.058-.001h.015a5.473 5.473 0 110 10.947z"/><path d="M26.275 21.188h-2.21v-2.21a.462.462 0 10-.923 0v2.21h-2.209a.462.462 0 100 .923h2.21v2.21a.462.462 0 10.923 0v-2.21h2.209a.462.462 0 100-.923z"/></g><defs><clipPath id="ayclip0"><path fill="#fff" d="M0 0h30v30H0z"/></clipPath></defs></svg><svg viewBox="0 0 26 30" id="step_5" xmlns="http://www.w3.org/2000/svg"><path d="M12.89 16.165h.2c1.82-.031 3.292-.671 4.38-1.895 2.391-2.696 1.994-7.318 1.95-7.76-.155-3.31-1.72-4.895-3.013-5.634C15.444.323 14.32.025 13.065 0H12.959c-.69 0-2.044.112-3.342.851-1.305.74-2.895 2.324-3.05 5.66-.044.44-.442 5.063 1.95 7.759 1.081 1.224 2.553 1.864 4.374 1.895zM8.226 6.666c0-.019.006-.037.006-.05.205-4.454 3.368-4.932 4.722-4.932H13.028c1.677.037 4.528.72 4.72 4.932 0 .019 0 .038.007.05.006.043.441 4.268-1.534 6.492-.783.882-1.827 1.317-3.2 1.33h-.062c-1.367-.013-2.417-.448-3.193-1.33-1.97-2.212-1.547-6.455-1.54-6.492z"/><path d="M25.756 23.831v-.019c0-.05-.006-.1-.006-.155-.037-1.23-.118-4.106-2.814-5.026l-.062-.018c-2.802-.715-5.132-2.33-5.156-2.349a.838.838 0 10-.963 1.373c.105.075 2.578 1.796 5.672 2.59 1.447.516 1.609 2.063 1.652 3.48 0 .056 0 .105.006.155.007.56-.03 1.423-.13 1.92-1.006.571-4.951 2.547-10.953 2.547-5.976 0-9.946-1.982-10.958-2.553-.1-.497-.143-1.361-.13-1.92 0-.05.005-.1.005-.155.044-1.417.205-2.964 1.653-3.48 3.094-.795 5.566-2.522 5.672-2.59a.838.838 0 10-.963-1.373c-.025.019-2.342 1.634-5.156 2.348a.782.782 0 00-.063.019C.366 19.55.285 22.427.248 23.65c0 .056 0 .105-.006.155v.019c-.006.323-.012 1.982.317 2.814a.797.797 0 00.323.391c.186.125 4.653 2.97 12.127 2.97 7.473 0 11.94-2.852 12.126-2.97a.831.831 0 00.323-.391c.31-.826.305-2.485.299-2.808z"/></svg><svg viewBox="0 0 30 30" id="step_6" xmlns="http://www.w3.org/2000/svg"><path d="M27.466 24.468H2.533a1.725 1.725 0 01-1.722-1.723V6.793a1.724 1.724 0 011.722-1.722h24.932a1.724 1.724 0 011.724 1.722v15.952a1.724 1.724 0 01-1.723 1.723zM2.533 5.882a.913.913 0 00-.912.911v15.952a.913.913 0 00.912.912h24.932a.913.913 0 00.913-.912V6.793a.913.913 0 00-.912-.911H2.533z"/><path d="M15 15.864c-.405.001-.8-.13-1.123-.373L1.431 6.121a.405.405 0 11.486-.648l12.446 9.37a1.06 1.06 0 001.27 0l12.448-9.37a.404.404 0 01.592.53.405.405 0 01-.106.119l-12.446 9.37a1.865 1.865 0 01-1.121.372z"/><path d="M1.494 23.957a.405.405 0 01-.263-.715l11.181-9.473a.406.406 0 01.524.618L1.757 23.86a.403.403 0 01-.262.097zM28.506 23.957a.403.403 0 01-.262-.097l-11.18-9.473a.405.405 0 11.523-.618l11.181 9.473a.405.405 0 01-.262.715z"/></svg><svg viewBox="0 0 30 30" id="step_7" xmlns="http://www.w3.org/2000/svg"><path d="M3.75 8.906H7.5c.259 0 .469-.21.469-.469V7.032H7.03v.938H4.22V5.156h1.406V4.22H3.75a.469.469 0 00-.469.468v3.75c0 .26.21.47.469.47z"/><path d="M5.624 6.368l-.606-.606-.663.663.938.938a.467.467 0 00.663 0L8.768 4.55l-.663-.663-2.48 2.481zM7.031 14.063H4.22V11.25h1.406v-.938H3.75a.469.469 0 00-.469.47v3.75c0 .258.21.468.469.468H7.5c.259 0 .469-.21.469-.469v-1.406H7.03v.938z"/><path d="M5.624 12.462l-.606-.606-.663.663.938.937a.467.467 0 00.663 0l2.812-2.812-.663-.663-2.48 2.481zM7.5 16.406H3.75a.469.469 0 00-.469.469v3.75c0 .259.21.469.469.469H7.5c.259 0 .469-.21.469-.469v-3.75a.469.469 0 00-.469-.469zm-.469 3.75H4.22v-2.812H7.03v2.812zM7.5 22.5H3.75a.469.469 0 00-.469.469v3.75c0 .259.21.468.469.468H7.5c.259 0 .469-.21.469-.468v-3.75A.469.469 0 007.5 22.5zm-.469 3.75H4.22v-2.813H7.03v2.813z"/><path d="M27.05 2.481a.469.469 0 00-.663 0l-2.95 2.95-4.356-4.356a.469.469 0 00-.331-.137H1.406a.469.469 0 00-.468.468v27.188c0 .259.21.468.468.468h22.032c.258 0 .468-.21.468-.468V10.038l5.02-5.02a.469.469 0 000-.662L27.05 2.481zM22.97 28.125H1.875V1.875h16.68l3.75 3.75H19.22V3.281h-.938v2.813c0 .259.21.468.469.468h3.556l-10.919 10.92a.471.471 0 00-.113.182l-.938 2.813a.469.469 0 00.594.593l2.812-.938a.47.47 0 00.183-.113l9.044-9.044v17.15zM11.924 18.68l.802.803-1.204.4.402-1.203zm1.67.345l-1.212-1.212L26.719 3.475l1.212 1.212-14.337 14.338z"/><path d="M21.094 26.25h.937v.938h-.937v-.938zM19.219 26.25h.937v.938h-.937v-.938zM17.344 26.25h.937v.938h-.937v-.938z"/></svg><svg viewBox="0 0 30 30" id="step_8" xmlns="http://www.w3.org/2000/svg"><path d="M24.551 20.01h-3.006v1.003h3.006V20.01zM20.544 20.01h-3.007v1.003h3.007V20.01zM16.536 20.01h-3.007v1.003h3.007V20.01z"/><path d="M29.556 10.392L19.642.476a1.497 1.497 0 00-1.066-.444h-.004c-.398 0-.778.16-1.057.444L6.998 10.99H1.503c-.83 0-1.503.674-1.503 1.504v14.03c0 .83.673 1.503 1.503 1.503h7.424l1.495 1.496c.282.284.665.444 1.065.444h.004c.398 0 .779-.16 1.058-.444l1.498-1.496h11.507c.83 0 1.503-.673 1.503-1.504V15.017l2.497-2.496a1.497 1.497 0 00.003-2.129zm-6.374-4.957l-5.557 5.557H13.37l7.685-7.685 2.127 2.128zm-4.957-4.253a.494.494 0 01.698-.008l.009.008L20.346 2.6l-8.393 8.392H8.415l9.81-9.809zm-6.386 27.636a.487.487 0 01-.35.15.501.501 0 01-.357-.15l-.788-.79h2.286l-.791.79zm14.216-2.294a.501.501 0 01-.5.502H1.502a.501.501 0 01-.5-.502V19.51h25.052v7.014zm0-8.017H1.002v-3.006h25.053v3.006zm0-4.008H1.002v-2.004c0-.277.224-.501.501-.501h24.051c.277 0 .501.224.501.5V14.5zm2.793-2.69l-1.79 1.791v-1.105c0-.83-.674-1.503-1.504-1.503H19.04l4.849-4.849 4.957 4.957a.5.5 0 01.002.71z"/><path d="M4.806 26.037c.073-.063.141-.132.204-.205a1.987 1.987 0 002.638.34c.54-.378.864-.993.87-1.652a2.004 2.004 0 00-2.004-2.004c-.1-.001-.2.007-.297.025l-.013.003h-.015a1.978 1.978 0 00-1.179.666 2.004 2.004 0 10-.204 2.827zm1.58-2.508a1.002 1.002 0 011.129.992c0 .211-.069.417-.196.587-.018.024-.032.05-.053.075-.003.005-.008.007-.012.011a.998.998 0 01-.74.328 1.002 1.002 0 01-.127-1.993zm-2.879-.011a1.002 1.002 0 110 2.004 1.002 1.002 0 010-2.004z"/></svg><svg viewBox="0 0 22 24" id="surface" xmlns="http://www.w3.org/2000/svg"><path d="M16.435 10.39V5.846c0-.13-.06-.25-.145-.345L11.198.155A.508.508 0 0010.833 0H2.759C1.27 0 .08 1.215.08 2.706v15.267c0 1.49 1.19 2.686 2.68 2.686h6.373A6.879 6.879 0 0015.025 24c3.791 0 6.887-3.081 6.887-6.878.006-3.316-2.376-6.087-5.477-6.733zm-5.102-8.634l3.416 3.596h-2.215c-.66 0-1.2-.545-1.2-1.205V1.756zM2.76 19.658c-.935 0-1.68-.75-1.68-1.686V2.707c0-.94.745-1.706 1.68-1.706h7.574v3.147c0 1.215.985 2.206 2.2 2.206h2.902v3.906c-.15-.005-.27-.02-.4-.02a6.98 6.98 0 00-4.562 1.721H4.12c-.275 0-.5.225-.5.5s.225.5.5.5h5.422c-.355.5-.65 1-.88 1.551H4.12c-.275 0-.5.225-.5.5s.225.5.5.5h4.217c-.125.5-.19 1.056-.19 1.611 0 .9.175 1.791.49 2.541H2.759v-.005zm12.27 3.347a5.884 5.884 0 01-5.877-5.878 5.88 5.88 0 015.878-5.877 5.88 5.88 0 015.877 5.877 5.883 5.883 0 01-5.877 5.878z"/><path d="M4.12 10.454h5.067c.275 0 .5-.225.5-.5s-.225-.5-.5-.5H4.12c-.275 0-.5.225-.5.5s.225.5.5.5zM15.594 14.472c-.459 0-.835.136-1.128.41-.29.273-.483.687-.581 1.24h2.227v.752h-2.3l-.01.22v.268l.01.19h1.992v.748h-1.91c.21 1.015.802 1.523 1.778 1.523.466 0 .942-.1 1.43-.303v.992c-.426.198-.922.298-1.489.298-.784 0-1.422-.215-1.913-.645-.489-.43-.808-1.051-.958-1.865H12v-.747h.664l-.01-.18v-.182l.01-.317H12v-.752h.733c.123-.817.434-1.458.932-1.924.498-.465 1.141-.698 1.929-.698.651 0 1.234.143 1.748.43l-.41.913c-.501-.248-.947-.371-1.338-.371z"/></svg><svg viewBox="0 0 24 24" id="user" xmlns="http://www.w3.org/2000/svg"><path d="M12 0a5.613 5.613 0 00-5.616 5.616A5.613 5.613 0 0012 11.232a5.613 5.613 0 005.616-5.616A5.613 5.613 0 0012 0zM14.187 11.882H9.813a7.985 7.985 0 00-7.98 7.98v3.251a.87.87 0 00.886.887h18.562a.87.87 0 00.887-.887v-3.25a7.985 7.985 0 00-7.98-7.981z"/></svg></svg>